# xmcd
#
# Track frame offsets:
#	150
#	19902
#	38400
#	59272
#	80470
#	96732
#	115572
#	135547
#	156337
#	177552
#	202397
#	221962
#	243492
#	265842
#	286950
#	310912
#
# Disc length: 4433 seconds
#
# Revision: 1
# Processed by: cddbd v1.5.1PL0 Copyright (c) Steve Scherf et al.
# Submitted via: CDex 1.50Beta5
#
DISCID=f1114f10
DTITLE=天童よしみ - 天童よしみベストヒット
DYEAR=1900
DGENRE=World
TTITLE0=酔ごころ
TTITLE1=かざぐるま
TTITLE2=おまえ
TTITLE3=男どうし
TTITLE4=あばれ玄海
TTITLE5=俺のみちづれ
TTITLE6=北海めおと節
TTITLE7=道頓堀人情
TTITLE8=酒場ひとり
TTITLE9=母舞台
TTITLE10=夜寒酒
TTITLE11=男道
TTITLE12=北港
TTITLE13=博多恋こよみ
TTITLE14=女の川
TTITLE15=北の恋歌
EXTD=
EXTT0=
EXTT1=
EXTT2=
EXTT3=
EXTT4=
EXTT5=
EXTT6=
EXTT7=
EXTT8=
EXTT9=
EXTT10=
EXTT11=
EXTT12=
EXTT13=
EXTT14=
EXTT15=
PLAYORDER=
